<?xml version="1.0" encoding="UTF-8"?>
<!DOCTYPE svg PUBLIC "-//W3C//DTD SVG 1.1//EN" "http://www.w3.org/Graphics/SVG/1.1/DTD/svg11.dtd">
<!-- Creator: CorelDRAW 2019 (64-Bit) -->
<svg xmlns="http://www.w3.org/2000/svg" xml:space="preserve" width="62.4017mm" height="18.9232mm" version="1.1" style="shape-rendering:geometricPrecision; text-rendering:geometricPrecision; image-rendering:optimizeQuality; fill-rule:evenodd; clip-rule:evenodd"
viewBox="0 0 6984.03 2117.89"
 xmlns:xlink="http://www.w3.org/1999/xlink">
 <defs>
  <style type="text/css">
   <![CDATA[
    .fil0 {fill:#00217E}
    .fil1 {fill:#004C33}
    .fil2 {fill:#D4AF37}
   ]]>
  </style>
 </defs>
 <g id="Layer_x0020_1">
  <metadata id="CorelCorpID_0Corel-Layer"/>
  <g id="_1978199344496">
   <path class="fil0" d="M6984.03 1566.44c-5.54,-9.3 -1.57,-2.69 -7.08,-9.85 -0.71,-0.92 -1.65,-2.05 -2.37,-2.97 -0.69,-0.9 -1.65,-1.96 -2.34,-2.83l-32.14 -37.34c-67.13,-69.49 -186.45,-219.85 -258.66,-297.99l-342.29 -392.93c-16.33,-17.31 -24.37,-30.22 -42.14,-44.88l-328.48 992.76 1015.5 -203.98z"/>
   <path class="fil1" d="M377 1560.28c39.32,-104.87 116.21,-274.89 165.53,-389.29l58.38 -127.01 215.31 517.02 -439.22 -0.72zm-217.02 507.6c17.3,-52.18 110.9,-260.86 140.89,-333.7 5.76,-13.99 9.71,-38.12 25.67,-38.12l536.39 0c18.19,0 19.69,21.23 27.9,40.85l136.57 330.38 162.23 -1.32 -584.36 -1365.74c-10.62,10.35 -15.66,26.57 -23.19,43.19 -144.84,319.34 -292.25,661.76 -432.82,983.17 -38.52,88.09 -119.9,262.52 -149.26,341.1l159.98 0.2z"/>
   <path class="fil1" d="M1627.5 1360.28c153.82,-28.94 294.7,76.79 314.59,253.29 46.59,413.33 -479.61,484.59 -533.33,92.8 -24.11,-175.82 74.84,-319.01 218.75,-346.09zm310.23 5.5c-23.87,-16.15 -23.59,-27.12 -42.14,-42.85 -118.57,-100.65 -264.88,-125.94 -410.01,-57.99 -126.56,59.26 -221.92,204.9 -222.21,395.53 -0.47,300.98 245.21,486.4 486.08,420.06 58.1,-16 109.35,-45.28 149.15,-84.51 21.8,-21.5 20.3,-30.39 39.13,-40.87l-0.01 112.38 137.87 0.37 0 -1431.16 -137.86 2.19 0 726.86z"/>
   <path class="fil1" d="M4794.42 1362.32c177.55,-35.64 312.03,94.71 336.6,241.07 30.98,184.53 -81.8,328.55 -229.34,356.1 -281.31,52.51 -436.55,-276.52 -288.03,-481.82 42.55,-58.83 88.03,-96.74 180.76,-115.35zm-375.41 337.9c21.78,223.82 210.8,415.17 464.94,391.29 230.58,-21.67 412.02,-216.05 389,-470.91 -20.32,-224.98 -216.41,-413.87 -465.73,-390.87 -248.9,22.98 -409.84,247.99 -388.21,470.49z"/>
   <path class="fil2" d="M5933.25 819.48c69.66,-37.33 673.25,-468.66 674.63,-470.76 -9.47,-7.73 -730.82,-343.26 -754.33,-348.72l79.7 819.48z"/>
   <path class="fil1" d="M3811.19 1872.13c7.26,-8.57 11.82,-11.87 18.78,-20.81l402.59 -471.66c11.46,-13.35 24.69,-28.69 36.46,-43.16l68.88 -82.23 -756.24 0.76 0 127.04 475.35 0.32c-5.84,12.33 -59.38,72.75 -72.52,86.72 -70.7,75.05 -181.48,216.89 -256.24,300.3l-254.16 298.46 841.44 0 -3.3 -129.18 -555.25 -0.2 54.21 -66.38z"/>
   <path class="fil1" d="M2998.56 1253.03l-155.5 0.34 -243.94 542.27 -239.49 -542.6 -158.02 0c25.72,71.73 68.38,149.45 100.25,219.88 32.57,71.98 66.7,141.84 98.46,214.75 22.26,51.14 186.44,412.3 202.89,430.23l395.36 -864.87z"/>
   <path class="fil1" d="M5171.15 1057.06l615.14 164.7c-13.65,-93.76 -111.25,-453.61 -147.01,-603.01l-7.69 -26.94c-3.34,-7.23 -3.44,-6.6 -5.7,-9.38 -38.08,31.9 -186.56,200.9 -228.51,238.32 -45.92,40.96 -72.68,82.18 -114.24,119.25 -42.17,37.63 -93.54,102.37 -112,117.05z"/>
   <polygon class="fil1" points="3161.64,2067.89 3281.7,2068.3 3299.5,2065.87 3299.56,1254.53 3281.66,1253.03 3161.64,1253.03 "/>
   <path class="fil1" d="M2938.96 492.81l46.46 0 0 -317c21.58,13.13 64.2,60.65 81.3,79.87l245.72 251.88c4.94,-104.99 0.82,-316.13 0.77,-432.1l-47.28 0 0 318.85 -326.98 -335.03 0 433.55z"/>
   <path class="fil1" d="M2521.49 118.11c220.54,-49.77 292.16,280.09 76.56,331.4 -101.48,24.16 -189.18,-47.68 -207.65,-127.91 -23.53,-102.18 49.95,-185.17 131.08,-203.48zm8.06 -45.59c-113.12,16.92 -202.02,108.57 -188.69,238.69 11.34,110.69 119.77,199.61 243.81,185.4 111.11,-12.74 207.79,-112.4 190.07,-241.71 -14.71,-107.3 -120.19,-201.09 -245.2,-182.37z"/>
   <path class="fil1" d="M4046.52 497.78c87.45,0 145.89,-54.59 150.82,-134.76 5.55,-90.32 1.12,-193.8 1.12,-285.55l-47.64 -2.01 0 263.34c0,146.3 -150.78,132.54 -190.13,71.05 -26.03,-40.67 -15.52,-267.4 -15.52,-332.37l-45.63 -1.47c0,92.93 -3.46,191.23 0.16,281.83 3.32,83.17 62.63,139.96 146.83,139.96z"/>
   <path class="fil1" d="M2189.01 458.64l-0.63 -58.58c-107.9,109.38 -295.47,38.7 -296.66,-115.92 -1.22,-156.63 192.64,-223.4 295.62,-115.97l1.95 -58.76c-65.08,-27.99 -123.59,-69.03 -231.44,-11.96 -205.27,108.6 -111.94,416.53 121.47,400.01 51.99,-3.67 72.32,-21.25 109.69,-38.83z"/>
   <path class="fil1" d="M3515.09 379.69c-18.42,4.07 -26.4,4.33 -40.97,13.74 13.89,71.11 81.46,123.73 169.26,98.92 64.12,-18.13 121.49,-99.04 76.22,-179.23 -32.51,-57.56 -136.73,-63.28 -169.06,-109.28 -32.02,-45.55 37.35,-147.69 133.42,-47.78 15.25,-6.72 22.92,-12.66 35.59,-18.69 -13.59,-32.21 -36.06,-54.63 -77.93,-63.86 -78.39,-17.28 -161.98,35.86 -145.08,124.88 19.6,103.3 254.74,96.16 181.39,213.76 -17.26,27.67 -52.4,49.49 -96.76,39.25 -17.33,-4 -33.91,-17.03 -42.42,-27 -13.16,-15.4 -13.58,-31.49 -23.66,-44.71z"/>
   <path class="fil1" d="M3209.74 849.96c-129.91,29.94 -86.09,226.27 48.66,190.76 117.94,-31.08 79.05,-220.19 -48.66,-190.76z"/>
   <path class="fil1" d="M4642.51 118.12l100.61 0.18 2 374.51 46.39 0c0,-63.65 -8.01,-334.43 2.92,-374.69l98.11 0 0.06 -42.68 -250.09 0 0 42.68z"/>
   <polygon class="fil1" points="4377.51,492.81 4539.45,492.81 4539.02,467.97 4537.37,450.04 4423.97,450.12 4423.97,75.45 4377.51,75.45 "/>
  </g>
 </g>
</svg>
